# xmcd CD Database Entry
#
# Track frame offsets:
# 150
# 42525
# 86705
# 112022
# 162105
# 206665
#
# Disc length: 3301 seconds
#
# Revision: 1
# Processed by: cddbd v1.4PL0 Copyright (c) Steve Scherf et al.
# Submitted via: tcd 2.0b
#
DISCID=4f0ce306
DTITLE=Miles Davis
DYEAR=1900
DGENRE=
TTITLE0=So What
TTITLE1=Freddie Freeloader
TTITLE2=Blue in Green
TTITLE3=All Blues
TTITLE4=Flemenco Sketches
TTITLE5=Flamenco Sketches (alternate take)
EXTD=
EXTT0=
EXTT1=
EXTT2=
EXTT3=
EXTT4=
EXTT5=
PLAYORDER=
